<svg width="60" height="61" viewBox="0 0 60 61" fill="none" xmlns="http://www.w3.org/2000/svg">
<path d="M10 11.75C10 10.7554 10.5268 9.80161 11.4645 9.09835C12.4021 8.39509 13.6739 8 15 8H45C46.3261 8 47.5979 8.39509 48.5355 9.09835C49.4732 9.80161 50 10.7554 50 11.75V23C50 23.9946 49.4732 24.9484 48.5355 25.6516C47.5979 26.3549 46.3261 26.75 45 26.75H15C13.6739 26.75 12.4021 26.3549 11.4645 25.6516C10.5268 24.9484 10 23.9946 10 23V11.75ZM15 11.75V23H45V11.75H15ZM30 45.5C31.3261 45.5 32.5979 45.1049 33.5355 44.4017C34.4732 43.6984 35 42.7446 35 41.75C35 40.7554 34.4732 39.8016 33.5355 39.0984C32.5979 38.3951 31.3261 38 30 38C28.6739 38 27.4022 38.3951 26.4645 39.0984C25.5268 39.8016 25 40.7554 25 41.75C25 42.7446 25.5268 43.6984 26.4645 44.4017C27.4022 45.1049 28.6739 45.5 30 45.5Z" fill="#C2A4A4"/>
<path d="M45 41.75C45 44.7337 43.4197 47.5952 40.6066 49.705C37.7936 51.8147 33.9782 53 30 53C26.0218 53 22.2064 51.8147 19.3934 49.705C16.5804 47.5952 15 44.7337 15 41.75C15 38.7663 16.5804 35.9048 19.3934 33.795C22.2064 31.6853 26.0218 30.5 30 30.5C33.9782 30.5 37.7936 31.6853 40.6066 33.795C43.4197 35.9048 45 38.7663 45 41.75ZM30 49.25C32.6522 49.25 35.1957 48.4598 37.0711 47.0533C38.9464 45.6468 40 43.7391 40 41.75C40 39.7609 38.9464 37.8532 37.0711 36.4467C35.1957 35.0402 32.6522 34.25 30 34.25C27.3478 34.25 24.8043 35.0402 22.9289 36.4467C21.0536 37.8532 20 39.7609 20 41.75C20 43.7391 21.0536 45.6468 22.9289 47.0533C24.8043 48.4598 27.3478 49.25 30 49.25Z" fill="#C2A4A4"/>
<path d="M0 8C0 6.01088 1.05357 4.10322 2.92893 2.6967C4.8043 1.29018 7.34784 0.5 10 0.5L50 0.5C52.6522 0.5 55.1957 1.29018 57.0711 2.6967C58.9464 4.10322 60 6.01088 60 8V53C60 54.9891 58.9464 56.8968 57.0711 58.3033C55.1957 59.7098 52.6522 60.5 50 60.5H10C7.34784 60.5 4.8043 59.7098 2.92893 58.3033C1.05357 56.8968 0 54.9891 0 53V8ZM10 4.25C8.67392 4.25 7.40215 4.64509 6.46447 5.34835C5.52678 6.05161 5 7.00544 5 8V53C5 53.9946 5.52678 54.9484 6.46447 55.6517C7.40215 56.3549 8.67392 56.75 10 56.75H50C51.3261 56.75 52.5979 56.3549 53.5355 55.6517C54.4732 54.9484 55 53.9946 55 53V8C55 7.00544 54.4732 6.05161 53.5355 5.34835C52.5979 4.64509 51.3261 4.25 50 4.25H10Z" fill="#C2A4A4"/>
<path d="M10 11.75C10 10.7554 10.5268 9.80161 11.4645 9.09835C12.4021 8.39509 13.6739 8 15 8H45C46.3261 8 47.5979 8.39509 48.5355 9.09835C49.4732 9.80161 50 10.7554 50 11.75V23C50 23.9946 49.4732 24.9484 48.5355 25.6516C47.5979 26.3549 46.3261 26.75 45 26.75H15C13.6739 26.75 12.4021 26.3549 11.4645 25.6516C10.5268 24.9484 10 23.9946 10 23V11.75ZM15 11.75V23H45V11.75H15ZM30 45.5C31.3261 45.5 32.5979 45.1049 33.5355 44.4017C34.4732 43.6984 35 42.7446 35 41.75C35 40.7554 34.4732 39.8016 33.5355 39.0984C32.5979 38.3951 31.3261 38 30 38C28.6739 38 27.4022 38.3951 26.4645 39.0984C25.5268 39.8016 25 40.7554 25 41.75C25 42.7446 25.5268 43.6984 26.4645 44.4017C27.4022 45.1049 28.6739 45.5 30 45.5Z" stroke="black"/>
<path d="M45 41.75C45 44.7337 43.4197 47.5952 40.6066 49.705C37.7936 51.8147 33.9782 53 30 53C26.0218 53 22.2064 51.8147 19.3934 49.705C16.5804 47.5952 15 44.7337 15 41.75C15 38.7663 16.5804 35.9048 19.3934 33.795C22.2064 31.6853 26.0218 30.5 30 30.5C33.9782 30.5 37.7936 31.6853 40.6066 33.795C43.4197 35.9048 45 38.7663 45 41.75ZM30 49.25C32.6522 49.25 35.1957 48.4598 37.0711 47.0533C38.9464 45.6468 40 43.7391 40 41.75C40 39.7609 38.9464 37.8532 37.0711 36.4467C35.1957 35.0402 32.6522 34.25 30 34.25C27.3478 34.25 24.8043 35.0402 22.9289 36.4467C21.0536 37.8532 20 39.7609 20 41.75C20 43.7391 21.0536 45.6468 22.9289 47.0533C24.8043 48.4598 27.3478 49.25 30 49.25Z" stroke="black"/>
<path d="M0 8C0 6.01088 1.05357 4.10322 2.92893 2.6967C4.8043 1.29018 7.34784 0.5 10 0.5L50 0.5C52.6522 0.5 55.1957 1.29018 57.0711 2.6967C58.9464 4.10322 60 6.01088 60 8V53C60 54.9891 58.9464 56.8968 57.0711 58.3033C55.1957 59.7098 52.6522 60.5 50 60.5H10C7.34784 60.5 4.8043 59.7098 2.92893 58.3033C1.05357 56.8968 0 54.9891 0 53V8ZM10 4.25C8.67392 4.25 7.40215 4.64509 6.46447 5.34835C5.52678 6.05161 5 7.00544 5 8V53C5 53.9946 5.52678 54.9484 6.46447 55.6517C7.40215 56.3549 8.67392 56.75 10 56.75H50C51.3261 56.75 52.5979 56.3549 53.5355 55.6517C54.4732 54.9484 55 53.9946 55 53V8C55 7.00544 54.4732 6.05161 53.5355 5.34835C52.5979 4.64509 51.3261 4.25 50 4.25H10Z" stroke="black"/>
</svg>
